<?xml version="1.0" encoding="utf-8"?>
<!-- Generator: Adobe Illustrator 16.0.3, SVG Export Plug-In . SVG Version: 6.00 Build 0)  -->
<!DOCTYPE svg PUBLIC "-//W3C//DTD SVG 1.1//EN" "http://www.w3.org/Graphics/SVG/1.1/DTD/svg11.dtd">
<svg version="1.1" id="Layer_1" xmlns="http://www.w3.org/2000/svg" xmlns:xlink="http://www.w3.org/1999/xlink" x="0px" y="0px"
	 width="128px" height="128px" viewBox="0 0 128 128" enable-background="new 0 0 128 128" xml:space="preserve">
<path fill="#FFDCAE" d="M110.896,50.323c0-5.806-2.285-10.512-8.389-10.512c-6.103,0-11.049,10.512-11.049,10.512
	s4.946,10.512,11.049,10.512C108.61,60.835,110.896,56.129,110.896,50.323z"/>
<g>
	<g>
		<path fill="#FBB040" d="M14.907,50.284c0-6.925,2.727-12.539,10.007-12.539c7.279,0,13.18,12.539,13.18,12.539
			s-5.9,12.539-13.18,12.539C17.634,62.822,14.907,57.209,14.907,50.284z"/>
		<path fill="#FFDCAE" d="M16.987,49.654c0-5.805,2.287-10.512,8.39-10.512c6.102,0,11.049,10.512,11.049,10.512
			s-4.947,10.512-11.049,10.512C19.273,60.166,16.987,55.46,16.987,49.654z"/>
		<path fill="#FBB040" d="M38.093,50.284c0,0-2.701-2.56-2.068-1.418c0.559,1.007-10.016-3.815-10.016-3.815l1.3,2.75l-4.504,1.854
			l4.599,1.806L25.8,54.291c0,0,10.269-3.87,9.812-3.092C35,52.244,38.093,50.284,38.093,50.284z"/>
	</g>
	<g>
		<path fill="#FBB040" d="M113.094,50.284c0-6.925-2.726-12.539-10.007-12.539c-7.278,0-13.18,12.539-13.18,12.539
			s5.901,12.539,13.18,12.539C110.368,62.822,113.094,57.209,113.094,50.284z"/>
		<path fill="#FFDCAE" d="M111.013,49.654c0-5.805-2.284-10.512-8.389-10.512c-6.102,0-11.048,10.512-11.048,10.512
			s4.946,10.512,11.048,10.512C108.729,60.166,111.013,55.46,111.013,49.654z"/>
		<path fill="#FBB040" d="M89.907,50.284c0,0,2.701-2.56,2.068-1.418c-0.56,1.007,10.016-3.815,10.016-3.815l-1.299,2.75
			l4.503,1.854l-4.598,1.806l1.604,2.831c0,0-10.269-3.87-9.813-3.092C93.002,52.244,89.907,50.284,89.907,50.284z"/>
	</g>
</g>
<path fill="#FBB040" d="M98.555,60.626c0.973-2.628,1.504-5.411,1.504-8.293c0-16.022-16.145-29.011-36.059-29.011
	S27.942,36.311,27.942,52.333c0,2.883,0.53,5.665,1.503,8.294c-3.711,4.385-5.847,9.533-5.847,15.04
	c0,16.022,18.088,29.011,40.402,29.011c22.313,0,40.402-12.988,40.402-29.011C104.402,70.16,102.266,65.012,98.555,60.626z"/>
<path fill="#FFDCAE" d="M91.844,67.041c3.094-3.499,5.023-8.418,5.023-13.872c0-10.618-7.304-19.226-16.313-19.226
	c-8.185,0-14.959,7.102-16.132,16.362c-0.123-0.051-0.247-0.084-0.374-0.09C62.842,41,56.083,33.944,47.926,33.944
	c-9.01,0-16.313,8.607-16.313,19.226c0,5.454,1.93,10.373,5.024,13.871c-4.374,3.698-6.971,8.3-6.971,13.291
	c0,12.191,15.479,22.074,34.574,22.074s34.574-9.883,34.574-22.074C98.814,75.341,96.218,70.739,91.844,67.041z"/>
<circle fill="#FFFFFF" stroke="#D1D3D4" stroke-miterlimit="10" cx="48.627" cy="54.345" r="12.993"/>
<circle fill="#FFFFFF" stroke="#D1D3D4" stroke-miterlimit="10" cx="79.374" cy="54.345" r="12.993"/>
<g>
	<circle fill="#414042" cx="48.582" cy="57.884" r="5.442"/>
	<circle fill="#414042" cx="79.418" cy="57.884" r="5.442"/>
</g>
<path fill="#414042" d="M64,62.032c0.527,0,2.745,4.289,3.575,4.289c0.831,0-0.994,2.477-3.575,2.477
	c-2.58,0-4.678-2.511-3.878-2.511S63.473,62.032,64,62.032z"/>
<ellipse fill="#414042" cx="64.24" cy="87.501" rx="15.383" ry="0.924"/>
<g>
	<path fill="#FBB040" d="M63.107,86.314c4.458-0.415,8.971-0.816,15.414-2.474c7.099-1.827,10.251-3.057,13.424-4.926
		c0.878-0.517-3.778-4.748-4.616-9.984c-0.758-4.732-0.287-10.071,2.925-10.846c3.212-0.775,2.254,4.076,5.303,8.632
		c1.7,2.539,4.92,4.696,6.821,6.59c2.05,2.042,2.721,3.724,2.721,3.724l22.357,13.06c0,0,1.736,1.551,0.648,6.104
		c-1.091,4.553-3.416,6.118-3.416,6.118l-17.703-2.049c0,0-15.566,3.469-23.171,5.063c-6.033,1.266-12.773,1.866-15.156,1.876
		c-2.068,0.009-4.173-0.853-4.906-2.979c-0.734-2.127,1.653-3.127,1.653-3.127s-4.456,0.025-5.511-3.034
		c-0.81-2.347,2.715-3.919,2.715-3.919s-4.206-0.826-4.5-3.34C57.813,88.289,60.205,86.585,63.107,86.314z"/>
	<path fill="#FFDCAE" d="M64.331,87.823c3.828-0.316,7.389-0.752,12.923-1.764c5.535-1.012,14.034-4.539,17.05-6.219
		c0.832-0.465-3.399-4.738-4.975-9.304c-1.494-4.332-2.205-7.392,0.12-10.092c2.043-2.372,2.149,3.718,5.057,7.871
		c1.621,2.316,4.688,4.294,6.497,6.024c1.952,1.866,2.594,3.398,2.594,3.398l21.281,11.987c0,0,2.723,2.09,1.693,6.22
		c-1.027,4.13-2.479,4.822-2.479,4.822L107.36,98.52c0,0-22.927,5.324-25.431,5.8c-5.569,1.059-9.671,1.737-11.811,1.654
		c-2.216-0.085-4.578,0.504-4.946-1.977c-0.468-3.145,9.902-4.387,15.559-5.368c5.655-0.981,13.957-4.64,13.957-4.64
		s-6.345,2.853-14.058,4.179c-8.838,1.522-18.527,2.657-19.479-0.101c-1.585-4.592,9.6-3.577,18.1-5.75
		c7.49-1.915,13.926-4.242,13.925-4.242c0.001,0-5.452,1.873-14.088,3.627c-8.634,1.754-18.979,1.681-19.249-1.116
		C59.619,88.295,61.57,88.053,64.331,87.823z"/>
</g>
<g>
	<path fill="#FBB040" d="M64.895,86.314c-4.459-0.415-8.971-0.816-15.415-2.474c-7.099-1.827-10.251-3.057-13.424-4.926
		c-0.878-0.517,3.778-4.748,4.616-9.984c0.758-4.732,0.287-10.071-2.925-10.846c-3.212-0.775-2.254,4.076-5.303,8.632
		c-1.7,2.539-4.92,4.696-6.821,6.59c-2.05,2.042-2.721,3.724-2.721,3.724L0.545,90.09c0,0-1.736,1.551-0.648,6.104
		c1.091,4.553,3.416,6.118,3.416,6.118l17.703-2.049c0,0,15.566,3.469,23.171,5.063c6.033,1.266,12.774,1.866,15.157,1.876
		c2.068,0.009,4.172-0.853,4.906-2.979s-1.654-3.127-1.654-3.127s4.457,0.025,5.512-3.034c0.811-2.347-2.715-3.919-2.715-3.919
		s4.205-0.826,4.5-3.34C70.189,88.289,67.797,86.585,64.895,86.314z"/>
	<path fill="#FFDCAE" d="M63.67,87.823c-3.828-0.316-7.389-0.752-12.923-1.764c-5.535-1.012-14.034-4.539-17.05-6.219
		c-0.832-0.465,3.399-4.738,4.975-9.304c1.494-4.332,2.205-7.392-0.12-10.092c-2.043-2.372-2.149,3.718-5.057,7.871
		c-1.621,2.316-4.688,4.294-6.497,6.024c-1.952,1.866-2.594,3.398-2.594,3.398L3.123,89.727c0,0-2.723,2.09-1.693,6.22
		c1.027,4.13,2.479,4.822,2.479,4.822l16.731-2.249c0,0,22.927,5.324,25.431,5.8c5.569,1.059,9.671,1.737,11.812,1.654
		c2.215-0.085,4.578,0.504,4.945-1.977c0.469-3.145-9.902-4.387-15.559-5.368c-5.655-0.981-13.957-4.64-13.957-4.64
		s6.345,2.853,14.058,4.179c8.839,1.522,18.528,2.657,19.479-0.101c1.586-4.592-9.6-3.577-18.101-5.75
		c-7.49-1.915-13.926-4.242-13.925-4.242c-0.001,0,5.452,1.873,14.088,3.627c8.635,1.754,18.98,1.681,19.25-1.116
		C68.383,88.295,66.432,88.053,63.67,87.823z"/>
</g>
</svg>
