<?xml version="1.0" encoding="utf-8"?>
<!-- Generator: Adobe Illustrator 16.0.3, SVG Export Plug-In . SVG Version: 6.00 Build 0)  -->
<!DOCTYPE svg PUBLIC "-//W3C//DTD SVG 1.1//EN" "http://www.w3.org/Graphics/SVG/1.1/DTD/svg11.dtd">
<svg version="1.1" id="Layer_1" xmlns="http://www.w3.org/2000/svg" xmlns:xlink="http://www.w3.org/1999/xlink" x="0px" y="0px"
	 width="128px" height="128px" viewBox="0 0 128 128" enable-background="new 0 0 128 128" xml:space="preserve">
<path fill="#FFDCAE" d="M110.896,50.323c0-5.806-2.285-10.512-8.389-10.512c-6.103,0-11.049,10.512-11.049,10.512
	s4.946,10.512,11.049,10.512C108.61,60.835,110.896,56.129,110.896,50.323z"/>
<g>
	<g>
		<path fill="#FBB040" d="M14.907,50.284c0-6.925,2.727-12.539,10.007-12.539c7.279,0,13.18,12.539,13.18,12.539
			s-5.9,12.539-13.18,12.539C17.634,62.822,14.907,57.209,14.907,50.284z"/>
		<path fill="#FFDCAE" d="M16.987,49.654c0-5.805,2.287-10.512,8.39-10.512c6.102,0,11.049,10.512,11.049,10.512
			s-4.947,10.512-11.049,10.512C19.273,60.166,16.987,55.46,16.987,49.654z"/>
		<path fill="#FBB040" d="M38.093,50.284c0,0-2.701-2.56-2.068-1.418c0.559,1.007-10.016-3.815-10.016-3.815l1.3,2.75l-4.504,1.854
			l4.599,1.806L25.8,54.291c0,0,10.269-3.87,9.812-3.092C35,52.244,38.093,50.284,38.093,50.284z"/>
	</g>
	<g>
		<path fill="#FBB040" d="M113.094,50.284c0-6.925-2.726-12.539-10.007-12.539c-7.278,0-13.18,12.539-13.18,12.539
			s5.901,12.539,13.18,12.539C110.368,62.822,113.094,57.209,113.094,50.284z"/>
		<path fill="#FFDCAE" d="M111.013,49.654c0-5.805-2.284-10.512-8.389-10.512c-6.102,0-11.048,10.512-11.048,10.512
			s4.946,10.512,11.048,10.512C108.729,60.166,111.013,55.46,111.013,49.654z"/>
		<path fill="#FBB040" d="M89.907,50.284c0,0,2.701-2.56,2.068-1.418c-0.56,1.007,10.016-3.815,10.016-3.815l-1.299,2.75
			l4.503,1.854l-4.598,1.806l1.604,2.831c0,0-10.269-3.87-9.813-3.092C93.002,52.244,89.907,50.284,89.907,50.284z"/>
	</g>
</g>
<path fill="#FBB040" d="M98.555,60.626c0.973-2.628,1.504-5.411,1.504-8.293c0-16.022-16.145-29.011-36.059-29.011
	S27.942,36.311,27.942,52.333c0,2.883,0.53,5.665,1.503,8.294c-3.711,4.385-5.847,9.533-5.847,15.04
	c0,16.022,18.088,29.011,40.402,29.011c22.313,0,40.402-12.988,40.402-29.011C104.402,70.16,102.266,65.012,98.555,60.626z"/>
<path fill="#FFDCAE" d="M91.844,67.041c3.094-3.499,5.023-8.418,5.023-13.872c0-10.618-7.304-19.226-16.313-19.226
	c-8.185,0-14.959,7.102-16.132,16.362c-0.123-0.051-0.247-0.084-0.374-0.09C62.842,41,56.083,33.944,47.926,33.944
	c-9.01,0-16.313,8.607-16.313,19.226c0,5.454,1.93,10.373,5.024,13.871c-4.374,3.698-6.971,8.3-6.971,13.291
	c0,12.191,15.479,22.074,34.574,22.074s34.574-9.883,34.574-22.074C98.814,75.341,96.218,70.739,91.844,67.041z"/>
<circle fill="#FFFFFF" stroke="#D1D3D4" stroke-miterlimit="10" cx="48.627" cy="54.345" r="12.993"/>
<circle fill="#FFFFFF" stroke="#D1D3D4" stroke-miterlimit="10" cx="79.374" cy="54.345" r="12.993"/>
<g>
	<circle fill="#414042" cx="48.582" cy="50.884" r="5.442"/>
	<circle fill="#414042" cx="79.418" cy="50.884" r="5.442"/>
</g>
<path fill="#414042" d="M64,62.032c0.527,0,2.745,4.289,3.575,4.289c0.831,0-0.994,2.477-3.575,2.477
	c-2.58,0-4.678-2.511-3.878-2.511S63.473,62.032,64,62.032z"/>
<path fill="#414042" d="M48.857,86.148c0-1.544,6.887,0.566,15.383,0.566s15.383-2.11,15.383-0.566
	c0,1.543-6.887,6.161-15.383,6.161S48.857,87.691,48.857,86.148z"/>
<g>
	<g>
		<path fill="#FBB040" d="M35.873,29.609c-1.105,2.178-6.983,14.41-7.46,17.941c-0.476,3.53,0.938,9.648,1.268,13.303
			c0.332,3.656-3.293,6.59-3.293,6.59L8.907,81.037c0,0-1.782,0.886-5.052-1.425c-3.268-2.314-3.725-2.957-3.771-4.66
			c-0.046-1.702,12.248-14.3,13.308-20.89c1.061-6.589,2.207-10.549,4.217-15.59c2.011-5.041,5.854-11.166,8.619-11.032
			c2.12,0.104,2.069,1.067,2.069,1.067s0.711-1.491,2.724-3.115c1.379-1.115,3.496-1.229,4.547-0.242
			C36.618,26.138,36.834,27.714,35.873,29.609z"/>
		<path fill="#FFDCAE" d="M32.485,32.185c-0.906,1.961-5.742,12.955-6.172,16.038c-0.429,3.083,1.45,8.3,1.656,11.43
			c0.207,3.13-2.705,5.932-2.705,5.932L8.627,79.344c0,0-1.424,0.897-3.976-0.854c-2.549-1.755-2.901-2.277-2.912-3.743
			c-0.01-1.467,11.654-14.022,12.593-19.788c0.938-5.766,5.673-10.547,5.673-10.547s3.876-6.974,9.31-15.034
			c0.859-1.273,2.945-3.758,3.883-3.138C35.29,27.621,33.274,30.478,32.485,32.185z"/>
		<path fill="#FFDCAE" d="M24.124,34.721c-3.258,4.917-5.49,10.15-6.828,11.228c-1.338,1.076-0.044-4.142,1.251-7.229
			c1.296-3.086,3.571-6.892,4.485-7.977c0.914-1.085,2.289-2.754,3.547-2.348C27.837,28.801,27.38,29.805,24.124,34.721z"/>
	</g>
	<g>
		<path fill="#FBB040" d="M92.128,29.609c1.104,2.178,6.983,14.41,7.46,17.941c0.476,3.53-0.938,9.649-1.269,13.303
			c-0.331,3.656,3.294,6.59,3.294,6.59l17.48,13.594c0,0,1.781,0.886,5.052-1.425c3.267-2.314,3.725-2.957,3.771-4.66
			c0.045-1.702-12.246-14.3-13.308-20.89c-1.061-6.589-2.207-10.549-4.218-15.59c-2.008-5.041-5.853-11.166-8.617-11.032
			c-2.119,0.104-2.069,1.067-2.069,1.067s-0.711-1.491-2.723-3.115c-1.38-1.115-3.497-1.229-4.548-0.242
			C91.383,26.138,91.167,27.714,92.128,29.609z"/>
		<path fill="#FFDCAE" d="M95.515,32.185c0.907,1.961,5.744,12.955,6.172,16.038c0.431,3.083-1.45,8.3-1.654,11.43
			c-0.207,3.13,2.706,5.932,2.706,5.932l16.636,13.759c0,0,1.423,0.897,3.975-0.854c2.549-1.755,2.901-2.277,2.911-3.743
			c0.01-1.467-11.653-14.022-12.593-19.788c-0.938-5.766-5.674-10.547-5.674-10.547s-3.874-6.974-9.309-15.034
			c-0.858-1.273-2.944-3.758-3.883-3.138C92.71,27.621,94.727,30.478,95.515,32.185z"/>
		<path fill="#FFDCAE" d="M103.877,34.721c3.258,4.917,5.49,10.15,6.828,11.228c1.338,1.076,0.044-4.142-1.253-7.229
			c-1.295-3.086-3.57-6.892-4.485-7.977c-0.913-1.085-2.287-2.754-3.545-2.348S100.62,29.805,103.877,34.721z"/>
	</g>
</g>
</svg>
