<?xml version="1.0" encoding="utf-8"?>
<!-- Generator: Adobe Illustrator 16.0.3, SVG Export Plug-In . SVG Version: 6.00 Build 0)  -->
<!DOCTYPE svg PUBLIC "-//W3C//DTD SVG 1.1//EN" "http://www.w3.org/Graphics/SVG/1.1/DTD/svg11.dtd">
<svg version="1.1" id="Layer_1" xmlns="http://www.w3.org/2000/svg" xmlns:xlink="http://www.w3.org/1999/xlink" x="0px" y="0px"
	 width="128px" height="128px" viewBox="0 0 128 128" enable-background="new 0 0 128 128" xml:space="preserve">
<g>
	<path fill="#FFDCAE" d="M110.896,50.323c0-5.806-2.285-10.512-8.39-10.512c-6.103,0-11.049,10.512-11.049,10.512
		s4.946,10.512,11.049,10.512S110.896,56.129,110.896,50.323z"/>
	<g>
		<g>
			<path fill="#FBB040" d="M14.907,50.284c0-6.925,2.727-12.539,10.007-12.539c7.279,0,13.18,12.539,13.18,12.539
				s-5.9,12.539-13.18,12.539C17.634,62.822,14.907,57.209,14.907,50.284z"/>
			<path fill="#FFDCAE" d="M16.987,49.654c0-5.805,2.287-10.512,8.39-10.512c6.102,0,11.049,10.512,11.049,10.512
				s-4.947,10.512-11.049,10.512C19.273,60.166,16.987,55.46,16.987,49.654z"/>
			<path fill="#FBB040" d="M38.093,50.284c0,0-2.701-2.56-2.068-1.418c0.559,1.007-10.016-3.815-10.016-3.815l1.3,2.75l-4.504,1.854
				l4.599,1.806l-1.604,2.83c0,0,10.269-3.87,9.812-3.092C35,52.244,38.093,50.284,38.093,50.284z"/>
		</g>
		<g>
			<path fill="#FBB040" d="M113.094,50.284c0-6.925-2.726-12.539-10.007-12.539c-7.278,0-13.18,12.539-13.18,12.539
				s5.901,12.539,13.18,12.539C110.368,62.822,113.094,57.209,113.094,50.284z"/>
			<path fill="#FFDCAE" d="M111.014,49.654c0-5.805-2.285-10.512-8.39-10.512c-6.103,0-11.048,10.512-11.048,10.512
				s4.945,10.512,11.048,10.512C108.729,60.166,111.014,55.46,111.014,49.654z"/>
			<path fill="#FBB040" d="M89.907,50.284c0,0,2.7-2.56,2.067-1.418c-0.56,1.007,10.017-3.815,10.017-3.815l-1.3,2.75l4.504,1.854
				l-4.598,1.806l1.604,2.831c0,0-10.27-3.87-9.813-3.092C93.002,52.244,89.907,50.284,89.907,50.284z"/>
		</g>
	</g>
	<path fill="#FBB040" d="M98.555,60.626c0.973-2.628,1.504-5.411,1.504-8.293c0-16.022-16.145-29.011-36.059-29.011
		S27.942,36.311,27.942,52.333c0,2.883,0.53,5.665,1.503,8.294c-3.711,4.385-5.847,9.533-5.847,15.04
		c0,16.022,18.088,29.011,40.402,29.011c22.313,0,40.402-12.988,40.402-29.011C104.402,70.16,102.266,65.012,98.555,60.626z"/>
	<path fill="#FFDCAE" d="M91.844,67.041c3.094-3.499,5.023-8.418,5.023-13.872c0-10.618-7.305-19.226-16.313-19.226
		c-8.186,0-14.959,7.102-16.133,16.362c-0.123-0.051-0.247-0.084-0.374-0.09C62.842,41,56.083,33.944,47.926,33.944
		c-9.01,0-16.313,8.607-16.313,19.226c0,5.454,1.93,10.373,5.024,13.871c-4.374,3.697-6.971,8.3-6.971,13.291
		c0,12.191,15.479,22.074,34.574,22.074c19.095,0,34.574-9.883,34.574-22.074C98.814,75.341,96.218,70.738,91.844,67.041z"/>
	<ellipse fill="#414042" stroke="#D1D3D4" stroke-miterlimit="10" cx="48.627" cy="60.396" rx="12.993" ry="2.466"/>
	<ellipse fill="#414042" stroke="#D1D3D4" stroke-miterlimit="10" cx="79.374" cy="60.396" rx="12.993" ry="2.466"/>
	<path fill="#414042" d="M64,62.032c0.527,0,2.745,4.288,3.575,4.288c0.831,0-0.994,2.478-3.575,2.478
		c-2.58,0-4.678-2.511-3.878-2.511C60.922,66.287,63.473,62.032,64,62.032z"/>
	<path fill="#414042" d="M48.857,88.227c0-0.688,6.887,0.252,15.383,0.252c8.497,0,15.383-0.938,15.383-0.252
		c0,0.688-6.887,2.739-15.383,2.739C55.744,90.966,48.857,88.913,48.857,88.227z"/>
	<g>
		<g>
			<path fill="#FBB040" d="M72.221,36.901c0,0,11.783,2.66,17.839,5.417c6.67,3.037,9.896,7.061,13.539,7.599
				c1.009,0.148,0.042-6.068,2.679-10.669c2.383-4.159,6.104-8.018,9.088-6.604c2.987,1.414-0.807,4.588-1.295,10.048
				c-0.271,3.043,0.879,6.745,1.17,9.412c0.313,2.876-0.223,4.606-0.223,4.606l10.628,11.263c0,0,2.296,4.34,0.159,8.51
				c-2.451,5.781-9.701,6.365-9.701,6.365s-10.333-4.125-18.083-3.375s-10.563-8.48-17.481-12.018
				c-5.488-2.803-12.446-4.606-14.483-5.841c-1.769-1.072-3.116-2.904-2.629-5.102c0.483-2.199,3.042-2.804,3.042-2.804
				s-3.815-3.305-3.119-6.465c0.534-2.424,4.361-2.926,4.361-2.926s-3.154-3.9-2.095-6.197
				C66.675,35.823,72.221,36.901,72.221,36.901z"/>
			<path fill="#FFDCAE" d="M70.721,37.776c0,0,10.543,3.203,15.317,4.387s17.764,10.823,19.061,9.628s0.822-7.77,1.797-10.319
				s4.473-7.989,6.97-7.954s-0.807,4.588-1.295,10.048c-0.271,3.043,0.879,6.745,1.17,9.412c0.313,2.876-0.223,4.606-0.223,4.606
				l11.018,11.429c0,0,2.603,2.885-0.39,7.834s-7.851,5.133-7.851,5.133s-12.149-4.508-18.774-3.633
				c-4.677,0.617-6.932-3.627-10.31-7.066c-2.197-2.238-8.172-5.951-8.172-5.951l-11.483-4.841c0,0-3.116-1.904-2.629-4.102
				c0.094-0.427,1.052-2.378,2.534-2.022c2.461,0.591,5.649,1.13,10.167,2.598s11.143,8.635,11.143,8.635l-10.346-9.985
				c0,0-8.133-1.836-10.574-3.044c-1.952-0.966-3.162-3.714-3-4.45c0.084-0.384,1.481-2.416,3.411-2.271
				c4.619,0.348,9.143,1.65,13.284,2.714s11.225,6.411,11.225,6.411l-9.797-7.396c0,0-9.693-1.629-14.014-4.22
				c-1.804-1.081-2.02-3.981-1.844-4.362C68.175,36.698,70.721,37.776,70.721,37.776z"/>
		</g>
		<g>
			<path fill="#FBB040" d="M62.384,38.12c1.06,2.297-2.095,6.197-2.095,6.197s3.826,0.502,4.361,2.926
				c0.697,3.16-3.119,6.464-3.119,6.464s2.559,0.605,3.042,2.805c0.486,2.197-0.861,4.029-2.629,5.102
				c-2.037,1.234-8.995,3.039-14.483,5.841c-6.918,3.537-9.731,12.768-17.481,12.018s-18.083,3.375-18.083,3.375
				s-7.25-0.584-9.701-6.365c-2.137-4.17,0.159-8.51,0.159-8.51l10.628-11.263c0,0-0.535-1.729-0.223-4.605
				c0.291-2.667,1.441-6.369,1.17-9.412c-0.488-5.46-4.282-8.634-1.295-10.048c2.984-1.414,6.705,2.445,9.088,6.604
				c2.637,4.601,1.67,10.817,2.679,10.668c3.644-0.537,6.869-4.562,13.539-7.599c6.056-2.757,17.839-5.417,17.839-5.417
				S61.326,35.823,62.384,38.12z"/>
			<path fill="#FFDCAE" d="M60.884,38.995c0.176,0.38-0.04,3.281-1.844,4.362c-4.32,2.591-14.014,4.22-14.014,4.22l-9.797,7.397
				c0,0,7.083-5.348,11.225-6.412c4.142-1.063,8.665-2.365,13.284-2.713c1.93-0.146,3.327,1.887,3.411,2.271
				c0.162,0.736-1.048,3.484-3,4.451c-2.441,1.207-10.574,3.044-10.574,3.044L39.23,65.598c0,0,6.625-7.167,11.143-8.634
				c4.518-1.469,7.706-2.008,10.167-2.599c1.482-0.356,2.44,1.595,2.534,2.022c0.486,2.197-2.629,4.102-2.629,4.102L48.961,65.33
				c0,0-5.975,3.713-8.172,5.951c-3.378,3.439-5.633,7.684-10.31,7.066c-6.625-0.875-18.774,3.633-18.774,3.633
				s-4.858-0.184-7.851-5.133s-0.39-7.834-0.39-7.834l11.018-11.429c0,0-0.535-1.729-0.223-4.605
				c0.291-2.667,1.441-6.369,1.17-9.412c-0.488-5.46-3.792-10.012-1.295-10.048s5.995,5.404,6.97,7.954s0.5,9.125,1.797,10.319
				c1.297,1.195,14.286-8.444,19.061-9.628s15.317-4.387,15.317-4.387S59.826,36.698,60.884,38.995z"/>
		</g>
	</g>
</g>
</svg>
