<?xml version="1.0" encoding="utf-8"?>
<!-- Generator: Adobe Illustrator 16.0.3, SVG Export Plug-In . SVG Version: 6.00 Build 0)  -->
<!DOCTYPE svg PUBLIC "-//W3C//DTD SVG 1.1//EN" "http://www.w3.org/Graphics/SVG/1.1/DTD/svg11.dtd">
<svg version="1.1" id="Layer_1" xmlns="http://www.w3.org/2000/svg" xmlns:xlink="http://www.w3.org/1999/xlink" x="0px" y="0px"
	 width="48px" height="48px" viewBox="0 0 48 48" enable-background="new 0 0 48 48" xml:space="preserve">
<g>
	<path fill-rule="evenodd" clip-rule="evenodd" fill="#006FB0" d="M24,15.112c4.908,0,8.888,3.979,8.888,8.888
		S28.908,32.888,24,32.888S15.112,28.908,15.112,24S19.092,15.112,24,15.112z"/>
	<g>
		<g>
			<path fill-rule="evenodd" clip-rule="evenodd" fill="#575859" d="M34.862,24c0,5.999-4.863,10.862-10.862,10.862
				S13.138,29.999,13.138,24S18.001,13.138,24,13.138V4.25C13.092,4.25,4.25,13.092,4.25,24c0,10.907,8.842,19.75,19.75,19.75
				c10.907,0,19.75-8.843,19.75-19.75H34.862z"/>
		</g>
	</g>
</g>
</svg>
