<?xml version="1.0" encoding="utf-8"?>
<!-- Generator: Adobe Illustrator 16.0.3, SVG Export Plug-In . SVG Version: 6.00 Build 0)  -->
<!DOCTYPE svg PUBLIC "-//W3C//DTD SVG 1.1//EN" "http://www.w3.org/Graphics/SVG/1.1/DTD/svg11.dtd">
<svg version="1.1" id="Layer_1" xmlns="http://www.w3.org/2000/svg" xmlns:xlink="http://www.w3.org/1999/xlink" x="0px" y="0px"
	 width="675.667px" height="299.833px" viewBox="-246.167 0 675.667 299.833" enable-background="new -246.167 0 675.667 299.833"
	 xml:space="preserve">
<path opacity="0.6" fill="#C8C8C8" d="M412.915,101.007c-1.673-8.331-8.283-14.405-16.173-15.802
	c-4.608-13.234-18.386-21.377-32.513-18.541c-7.899,1.587-14.369,6.301-18.394,12.592c-2.743-0.533-5.634-0.555-8.544,0.029
	c-11.952,2.4-19.695,14.034-17.295,25.984c2.399,11.952,14.033,19.695,25.985,17.295c3.25-0.652,6.186-1.992,8.693-3.831
	c5.966,3.751,13.321,5.317,20.775,3.821c1.945-0.392,3.805-0.973,5.562-1.719c4.437,3.416,10.268,4.971,16.188,3.781
	C408.06,122.438,415.096,111.866,412.915,101.007z"/>
<path opacity="0.6" fill="#C8C8C8" d="M-63.868,103.332C-66.91,88.18-78.935,77.131-93.284,74.591
	c-8.383-24.074-33.442-38.884-59.139-33.724c-14.368,2.885-26.136,11.46-33.456,22.901c-4.991-0.969-10.248-1.008-15.541,0.055
	c-21.74,4.365-35.824,25.527-31.459,47.264c4.365,21.739,25.526,35.823,47.266,31.458c5.912-1.187,11.251-3.623,15.813-6.969
	c10.852,6.823,24.229,9.672,37.789,6.949c3.539-0.711,6.918-1.768,10.115-3.125c8.069,6.213,18.676,9.041,29.444,6.879
	C-72.698,142.313-59.901,123.085-63.868,103.332z"/>
<path opacity="0.6" fill="#C8C8C8" d="M302.029,49.925c0-18.421-14.934-33.355-33.354-33.355c-12.911,0-24.101,7.34-29.645,18.07
	c-6.343-4.196-13.942-6.646-22.117-6.646c-22.174,0-40.148,17.975-40.148,40.146c0,22.174,17.975,40.147,40.148,40.147
	c7.757,0,14.995-2.206,21.135-6.016c2.05,1.703,4.396,3.123,7.006,4.163c13.353,5.317,28.485-1.195,33.803-14.546
	c1.418-3.561,1.986-7.246,1.816-10.84C293.164,76.229,302.029,64.117,302.029,49.925z"/>
<path opacity="0.6" fill="#C8C8C8" d="M111.182,45.723c-2.97-1.183-6.026-1.776-9.045-1.844
	c-5.069-16.364-20.321-28.25-38.351-28.25c-3.612,0-7.11,0.485-10.439,1.379C44.052,8.189,31.501,2.768,17.677,2.768
	c-12.728,0-24.378,4.595-33.401,12.206c-3.357-1.136-6.951-1.761-10.692-1.761c-18.423,0-33.356,14.935-33.356,33.355
	c0,18.033,14.309,32.712,32.191,33.328c8.871,15.845,25.809,26.561,45.258,26.561c12.883,0,24.66-4.709,33.727-12.487
	c3.901,1.264,8.06,1.954,12.381,1.954c7.757,0,14.996-2.205,21.134-6.015c2.051,1.704,4.396,3.124,7.006,4.163
	c13.354,5.316,28.486-1.195,33.803-14.547C131.045,66.174,124.533,51.041,111.182,45.723z"/>
<path fill="#646464" d="M307.568,192.931c-26.349,0-49.444,4.501-62.401,11.258c-12.731-3.438-29.103-5.508-46.97-5.508
	c-20.463,0-38.964,2.716-52.28,7.093c-12.728-7.077-36.376-11.837-63.471-11.837c-32.377,0-59.84,6.795-69.609,16.225
	c-18.078-6.853-44.94-11.197-74.937-11.197c-54.438,0-98.565,14.306-98.565,31.954c0,17.652,44.127,31.958,98.565,31.958
	c49.13,0,89.856-11.651,97.334-26.899c12.766,3.479,29.23,5.577,47.212,5.577c20.465,0,38.966-2.716,52.282-7.093
	c12.728,7.077,36.376,11.837,63.469,11.837c26.35,0,49.445-4.501,62.402-11.259c12.731,3.438,29.103,5.509,46.969,5.509
	c40.561,0,73.438-10.658,73.438-23.81C381.006,203.589,348.129,192.931,307.568,192.931z"/>
<g>
	<g>
		<path fill="#FBB040" d="M241.252,161.623c0,23.004-20.93,33.549-46.744,33.549s-46.744-10.545-46.744-33.549
			c0-23.006,20.93-41.658,46.744-41.658S241.252,138.617,241.252,161.623z"/>
		<path fill="#FFDCAE" d="M239.396,160.464c0,20.867-20.098,29.68-44.891,29.68c-24.789,0-44.887-8.813-44.887-29.68
			c0-20.868,20.098-37.787,44.887-37.787C219.299,122.677,239.396,139.596,239.396,160.464z"/>
	</g>
	<ellipse fill="#FBB040" cx="195.79" cy="182.46" rx="2.409" ry="1.461"/>
	<g>
		<g>
			<path fill="#FAAF40" d="M230.488,208.088c1.672,0.473,3.053,0.968,4.203,1.484c0.02,0.009,0.037,0.016,0.059,0.024
				c5.602,2.388,11.865,7.163,10.859,9.522c-0.473,1.106-1.91,1.681-3.873,1.741c2.115,1.822,3.18,3.733,2.586,5.125
				c-0.539,1.265-2.34,1.839-4.75,1.734c0.943,1.24,1.318,2.434,0.912,3.385c-1.006,2.359-6.363,2.334-11.965-0.055
				c-1.346-0.572-2.58-1.232-3.668-1.934c-0.092-0.05-0.186-0.082-0.275-0.136c-5.258-3.104-31.557-13.328-29.861-19.313
				C196.408,203.684,218.455,204.682,230.488,208.088z"/>
			<path fill="#FFDCAE" d="M218.516,206.831c6.895,0.691,11.428,1.993,15.723,3.83c4.295,1.839,10.605,6.161,9.916,7.576
				c-0.693,1.414-2.402,1.668-4.125,1.637c1.93,1.451,3.41,4.405,2.691,5.536c-0.719,1.13-2.75,1.602-4.873,1.428
				c0.877,0.969,2.268,1.907,1.4,3.485c-0.867,1.579-7.896,1.859-13.184-5.51s-32.361-12.963-28.549-16.112
				S211.621,206.141,218.516,206.831z"/>
		</g>
		<path fill="#FBB040" d="M210.203,193.304l-8.748,15.442c0,0-1.938,1.554-4.6,0.64c-2.662-0.913,0.506-2.781,0.506-2.781
			l2.332-12.759L210.203,193.304z"/>
	</g>
	<g>
		<g>
			<path fill="#FAAF40" d="M154.891,207.533c-1.672,0.473-3.053,0.969-4.205,1.485c-0.018,0.009-0.037,0.015-0.057,0.023
				c-5.602,2.389-11.865,7.164-10.859,9.522c0.471,1.107,1.908,1.682,3.873,1.742c-2.115,1.822-3.18,3.733-2.588,5.125
				c0.541,1.265,2.34,1.839,4.752,1.734c-0.943,1.24-1.318,2.434-0.912,3.384c1.004,2.36,6.363,2.335,11.965-0.055
				c1.346-0.572,2.58-1.231,3.668-1.933c0.092-0.05,0.186-0.083,0.273-0.137c5.26-3.103,31.557-13.327,29.863-19.313
				C188.971,203.13,166.924,204.128,154.891,207.533z"/>
			<path fill="#FFDCAE" d="M166.863,206.277c-6.895,0.69-11.428,1.992-15.723,3.83c-4.297,1.839-10.605,6.161-9.916,7.575
				c0.693,1.415,2.402,1.669,4.125,1.638c-1.93,1.45-3.41,4.405-2.691,5.535c0.717,1.131,2.75,1.602,4.873,1.429
				c-0.879,0.968-2.268,1.906-1.4,3.485c0.867,1.578,7.896,1.859,13.184-5.511c5.287-7.368,32.361-12.962,28.549-16.112
				C184.051,204.998,173.756,205.586,166.863,206.277z"/>
		</g>
		<path fill="#FBB040" d="M175.174,192.75l8.748,15.442c0,0,1.939,1.553,4.602,0.64s-0.506-2.782-0.506-2.782l-2.332-12.759
			L175.174,192.75z"/>
	</g>
	<path fill="#FFDCAE" d="M231.586,95.963c0-4.711-1.854-8.529-6.805-8.529c-4.953,0-8.965,8.529-8.965,8.529
		s4.012,8.528,8.965,8.528C229.73,104.491,231.586,100.673,231.586,95.963z"/>
	<g>
		<g>
			<path fill="#FBB040" d="M153.709,95.932c0-5.618,2.211-10.174,8.119-10.174c5.904,0,10.693,10.174,10.693,10.174
				s-4.787,10.172-10.693,10.172C155.92,106.104,153.709,101.55,153.709,95.932z"/>
			<path fill="#FFDCAE" d="M155.396,95.421c0-4.71,1.855-8.529,6.807-8.529c4.949,0,8.963,8.529,8.963,8.529
				s-4.014,8.527-8.963,8.527C157.252,103.948,155.396,100.131,155.396,95.421z"/>
			<path fill="#FBB040" d="M172.52,95.932c0,0-2.191-2.077-1.678-1.15c0.455,0.817-8.125-3.096-8.125-3.096l1.053,2.231
				l-3.654,1.504l3.732,1.466l-1.301,2.296c0,0,8.33-3.14,7.961-2.509C170.012,97.521,172.52,95.932,172.52,95.932z"/>
		</g>
		<g>
			<path fill="#FBB040" d="M233.369,95.932c0-5.618-2.211-10.174-8.119-10.174c-5.906,0-10.691,10.174-10.691,10.174
				s4.785,10.172,10.691,10.172C231.158,106.104,233.369,101.55,233.369,95.932z"/>
			<path fill="#FFDCAE" d="M231.682,95.421c0-4.71-1.855-8.529-6.807-8.529s-8.965,8.529-8.965,8.529s4.014,8.527,8.965,8.527
				S231.682,100.131,231.682,95.421z"/>
			<path fill="#FBB040" d="M214.559,95.932c0,0,2.189-2.077,1.676-1.15c-0.453,0.817,8.127-3.096,8.127-3.096l-1.055,2.231
				l3.654,1.504l-3.73,1.466l1.301,2.296c0,0-8.332-3.14-7.961-2.508C217.068,97.521,214.559,95.932,214.559,95.932z"/>
		</g>
	</g>
	<path fill="#FBB040" d="M221.572,104.322c0.789-2.132,1.221-4.391,1.221-6.729c0-12.999-13.098-23.537-29.256-23.537
		c-16.156,0-29.252,10.538-29.252,23.537c0,2.339,0.43,4.597,1.219,6.729c-3.01,3.557-4.744,7.734-4.744,12.201
		c0,13,14.674,23.537,32.777,23.537s32.779-10.537,32.779-23.537C226.316,112.058,224.584,107.88,221.572,104.322z"/>
	<path fill="#FFDCAE" d="M216.127,109.526c2.512-2.839,4.076-6.829,4.076-11.254c0-8.615-5.926-15.599-13.234-15.599
		c-6.641,0-12.137,5.762-13.088,13.274c-0.102-0.041-0.201-0.068-0.303-0.073c-0.979-7.477-6.463-13.201-13.082-13.201
		c-7.309,0-13.234,6.983-13.234,15.599c0,4.425,1.566,8.415,4.078,11.254c-3.551,3-5.658,6.734-5.658,10.783
		c0,9.891,12.559,17.909,28.051,17.909c15.494,0,28.051-8.019,28.051-17.909C221.783,116.261,219.678,112.526,216.127,109.526z"/>
	<ellipse fill="#414042" stroke="#D1D3D4" stroke-miterlimit="10" cx="181.066" cy="104.135" rx="10.541" ry="2"/>
	<ellipse fill="#414042" stroke="#D1D3D4" stroke-miterlimit="10" cx="206.012" cy="104.135" rx="10.541" ry="2"/>
	<path fill="#414042" d="M193.537,105.462c0.43,0,2.229,3.48,2.902,3.48s-0.807,2.01-2.902,2.01c-2.092,0-3.795-2.038-3.145-2.038
		C191.041,108.914,193.111,105.462,193.537,105.462z"/>
	<path fill="#414042" d="M181.252,126.715c0-0.559,5.588,0.204,12.48,0.204c6.895,0,12.48-0.762,12.48-0.204
		s-5.586,2.222-12.48,2.222C186.84,128.937,181.252,127.271,181.252,126.715z"/>
	<g>
		<path fill="#FBB040" d="M200.207,85.074c0,0,9.561,2.156,14.475,4.395c5.412,2.464,8.027,5.729,10.984,6.164
			c0.818,0.12,0.033-4.922,2.172-8.655c1.934-3.374,4.951-6.505,7.373-5.357c2.424,1.147-0.654,3.722-1.049,8.151
			c-0.221,2.469,0.711,5.473,0.947,7.637c0.254,2.334-0.18,3.737-0.18,3.737l8.623,9.137c0,0,1.863,3.521,0.129,6.904
			c-1.99,4.69-7.871,5.164-7.871,5.164s-8.383-3.347-14.67-2.737c-6.287,0.607-8.572-6.882-14.184-9.751
			c-4.453-2.274-10.098-3.737-11.75-4.739c-1.436-0.87-2.529-2.356-2.135-4.139c0.393-1.784,2.469-2.275,2.469-2.275
			s-3.096-2.681-2.529-5.245c0.434-1.967,3.537-2.375,3.537-2.375s-2.559-3.163-1.699-5.027
			C195.709,84.198,200.207,85.074,200.207,85.074z"/>
		<path fill="#FFDCAE" d="M198.99,85.783c0,0,8.555,2.6,12.428,3.56c3.873,0.961,14.412,8.78,15.465,7.812s0.668-6.305,1.457-8.372
			c0.791-2.067,3.631-6.481,5.654-6.453c2.027,0.029-0.654,3.724-1.051,8.152c-0.221,2.469,0.715,5.473,0.949,7.636
			c0.254,2.334-0.18,3.737-0.18,3.737l8.938,9.272c0,0,2.113,2.341-0.314,6.356c-2.428,4.015-6.371,4.164-6.371,4.164
			s-9.855-3.657-15.23-2.948c-3.795,0.501-5.623-2.941-8.365-5.732c-1.781-1.816-6.631-4.828-6.631-4.828l-9.314-3.929
			c0,0-2.529-1.545-2.133-3.327c0.074-0.348,0.852-1.93,2.055-1.641c1.996,0.479,4.584,0.917,8.25,2.107
			c3.666,1.191,9.039,7.006,9.039,7.006l-8.393-8.101c0,0-6.6-1.49-8.58-2.471c-1.584-0.783-2.564-3.014-2.434-3.61
			c0.068-0.312,1.201-1.96,2.768-1.842c3.748,0.282,7.416,1.339,10.779,2.202c3.357,0.862,9.105,5.2,9.105,5.2l-7.949-6
			c0,0-7.863-1.321-11.369-3.423c-1.463-0.878-1.639-3.23-1.496-3.54C196.926,84.908,198.99,85.783,198.99,85.783z"/>
	</g>
	<path fill="#FBB040" d="M244.205,114.774c-0.172,2.025,10.328,10.636,10.494,12.789c0.168,2.153-15.809,20.974-15.809,20.974
		l-6.697-11.552c0,0,11.445-6.579,11.309-8.049c-0.135-1.47-4.021-7.311-5.857-6.948c-0.912,0.181,2.094-0.846,3.973-2.938
		C243.516,116.935,244.293,113.757,244.205,114.774z"/>
	<g>
		<g>
			<path fill="#FBB040" d="M192.816,84.638c0.951,1.818-1.447,5.105-1.447,5.105s3.121,0.253,3.65,2.196
				c0.693,2.531-2.264,5.363-2.264,5.363s2.098,0.388,2.578,2.151c0.482,1.761-0.533,3.298-1.924,4.239
				c-1.6,1.082-7.166,2.825-11.498,5.319c-5.463,3.146-7.369,10.738-13.68,10.444c-6.311-0.293-14.518,3.467-14.518,3.467
				s-5.898-0.181-8.119-4.766c-1.898-3.292-0.215-6.902-0.215-6.902l8.158-9.556c0,0-0.504-1.379-0.367-3.722
				c0.127-2.175,0.91-5.222,0.566-7.676c-0.617-4.404-3.818-6.821-1.455-8.089c2.361-1.268,5.531,1.71,7.633,4.982
				c2.322,3.623,1.789,8.698,2.6,8.537c2.93-0.582,5.383-3.974,10.664-6.704c4.795-2.479,14.234-5.109,14.234-5.109
				S191.865,82.82,192.816,84.638z"/>
			<path fill="#FFDCAE" d="M191.637,85.407c0.158,0.303,0.1,2.66-1.318,3.611c-3.395,2.273-11.184,3.985-11.184,3.985l-7.639,6.388
				c0,0,5.521-4.619,8.836-5.648c3.311-1.028,6.924-2.267,10.652-2.735c1.559-0.195,2.773,1.395,2.857,1.702
				c0.16,0.589-0.709,2.864-2.252,3.726c-1.93,1.077-8.445,2.896-8.445,2.896l-7.98,8.509c0,0,5.08-6.076,8.682-7.449
				c3.602-1.371,6.162-1.938,8.133-2.516c1.186-0.348,2.041,1.193,2.135,1.537c0.484,1.76-1.965,3.43-1.965,3.43l-9.107,4.388
				c0,0-4.691,3.249-6.381,5.152c-2.598,2.925-4.254,6.453-8.07,6.144c-5.402-0.441-15.064,3.703-15.064,3.703
				s-3.945,0.046-6.57-3.842c-2.623-3.89-0.631-6.333-0.631-6.333l8.463-9.707c0,0-0.502-1.379-0.365-3.723
				c0.127-2.173,0.91-5.22,0.568-7.675c-0.617-4.403-3.479-7.958-1.457-8.089c2.023-0.13,5.076,4.138,5.971,6.164
				c0.893,2.025,0.773,7.374,1.873,8.287c1.1,0.916,11.234-7.418,15.055-8.571c3.82-1.152,12.234-4.175,12.234-4.175
				S190.686,83.59,191.637,85.407z"/>
		</g>
		<path fill="#FBB040" d="M144.553,115.388c0.203,2.022-10.17,10.785-10.307,12.941c-0.135,2.155,16.113,20.74,16.113,20.74
			l6.529-11.648c0,0-11.541-6.411-11.426-7.883c0.115-1.471,3.916-7.367,5.756-7.032c0.914,0.166-2.105-0.814-4.016-2.881
			C145.275,117.538,144.451,114.372,144.553,115.388z"/>
	</g>
</g>
<g>
	<g>
		<path fill="#FBB040" d="M356.293,153.503c0,23.004-20.93,33.549-46.744,33.549s-46.744-10.545-46.744-33.549
			c0-23.006,20.93-41.658,46.744-41.658S356.293,130.497,356.293,153.503z"/>
		<path fill="#FFDCAE" d="M354.438,152.344c0,20.867-20.098,29.68-44.891,29.68c-24.789,0-44.887-8.813-44.887-29.68
			c0-20.868,20.098-37.787,44.887-37.787C334.34,114.557,354.438,131.476,354.438,152.344z"/>
	</g>
	<ellipse fill="#FBB040" cx="304.831" cy="174.34" rx="2.409" ry="1.461"/>
	<g>
		<g>
			<path fill="#FAAF40" d="M345.529,199.968c1.672,0.473,3.053,0.968,4.203,1.484c0.02,0.009,0.037,0.016,0.059,0.024
				c5.602,2.388,11.865,7.163,10.859,9.522c-0.473,1.106-1.91,1.681-3.873,1.741c2.115,1.822,3.18,3.733,2.586,5.125
				c-0.539,1.265-2.34,1.839-4.75,1.734c0.943,1.24,1.318,2.434,0.912,3.385c-1.006,2.359-6.363,2.334-11.965-0.055
				c-1.346-0.572-2.58-1.232-3.668-1.934c-0.092-0.05-0.186-0.082-0.275-0.136c-5.258-3.104-31.557-13.328-29.861-19.313
				C311.449,195.563,333.496,196.562,345.529,199.968z"/>
			<path fill="#FFDCAE" d="M333.557,198.711c6.895,0.691,11.428,1.993,15.723,3.83c4.295,1.839,10.605,6.161,9.916,7.576
				c-0.693,1.414-2.402,1.668-4.125,1.637c1.93,1.451,3.41,4.405,2.691,5.536c-0.719,1.13-2.75,1.602-4.873,1.428
				c0.877,0.969,2.268,1.907,1.4,3.485c-0.867,1.579-7.896,1.859-13.184-5.51s-32.361-12.963-28.549-16.112
				S326.662,198.021,333.557,198.711z"/>
		</g>
		<path fill="#FBB040" d="M325.244,185.184l-8.748,15.442c0,0-1.938,1.554-4.6,0.64c-2.662-0.913,0.506-2.781,0.506-2.781
			l2.332-12.759L325.244,185.184z"/>
	</g>
	<g>
		<g>
			<path fill="#FAAF40" d="M269.932,199.413c-1.672,0.473-3.053,0.969-4.205,1.485c-0.018,0.009-0.037,0.015-0.057,0.023
				c-5.602,2.389-11.865,7.164-10.859,9.522c0.471,1.107,1.908,1.682,3.873,1.742c-2.115,1.822-3.18,3.733-2.588,5.125
				c0.541,1.265,2.34,1.839,4.752,1.734c-0.943,1.24-1.318,2.434-0.912,3.384c1.004,2.36,6.363,2.335,11.965-0.055
				c1.346-0.572,2.58-1.231,3.668-1.933c0.092-0.05,0.186-0.083,0.273-0.137c5.26-3.103,31.557-13.327,29.863-19.313
				C304.012,195.01,281.965,196.008,269.932,199.413z"/>
			<path fill="#FFDCAE" d="M281.904,198.157c-6.895,0.69-11.428,1.992-15.723,3.83c-4.297,1.839-10.605,6.161-9.916,7.575
				c0.693,1.415,2.402,1.669,4.125,1.638c-1.93,1.45-3.41,4.405-2.691,5.535c0.717,1.131,2.75,1.602,4.873,1.429
				c-0.879,0.968-2.268,1.906-1.4,3.485c0.867,1.578,7.896,1.859,13.184-5.511c5.287-7.368,32.361-12.962,28.549-16.112
				C299.092,196.878,288.797,197.466,281.904,198.157z"/>
		</g>
		<path fill="#FBB040" d="M290.215,184.63l8.748,15.442c0,0,1.939,1.553,4.602,0.64s-0.506-2.782-0.506-2.782l-2.332-12.759
			L290.215,184.63z"/>
	</g>
	<path fill="#FFDCAE" d="M354.002,81.396c0-5.368-2.113-9.721-7.758-9.721s-10.219,9.721-10.219,9.721s4.574,9.722,10.219,9.722
		C351.887,91.117,354.002,86.766,354.002,81.396z"/>
	<g>
		<g>
			<path fill="#FBB040" d="M265.234,81.36c0-6.404,2.521-11.596,9.254-11.596c6.73,0,12.189,11.596,12.189,11.596
				s-5.457,11.595-12.189,11.595S265.234,87.764,265.234,81.36z"/>
			<path fill="#FFDCAE" d="M267.158,80.777c0-5.367,2.113-9.721,7.758-9.721c5.643,0,10.217,9.721,10.217,9.721
				s-4.574,9.722-10.217,9.722C269.271,90.499,267.158,86.146,267.158,80.777z"/>
			<path fill="#FBB040" d="M286.676,81.36c0,0-2.498-2.367-1.912-1.312c0.516,0.932-9.262-3.528-9.262-3.528l1.201,2.543
				l-4.166,1.714l4.254,1.671l-1.482,2.617c0,0,9.496-3.579,9.072-2.859C283.814,83.173,286.676,81.36,286.676,81.36z"/>
		</g>
		<g>
			<path fill="#FBB040" d="M356.033,81.36c0-6.404-2.52-11.596-9.252-11.596S334.592,81.36,334.592,81.36
				s5.457,11.595,12.189,11.595S356.033,87.764,356.033,81.36z"/>
			<path fill="#FFDCAE" d="M354.109,80.777c0-5.367-2.113-9.721-7.758-9.721s-10.217,9.721-10.217,9.721s4.572,9.722,10.217,9.722
				S354.109,86.146,354.109,80.777z"/>
			<path fill="#FBB040" d="M334.592,81.36c0,0,2.496-2.367,1.912-1.312c-0.518,0.932,9.264-3.528,9.264-3.528l-1.203,2.543
				l4.164,1.714l-4.252,1.671l1.484,2.618c0,0-9.498-3.579-9.074-2.859C337.453,83.173,334.592,81.36,334.592,81.36z"/>
		</g>
	</g>
	<path fill="#FBB040" d="M342.588,90.924c0.9-2.43,1.391-5.004,1.391-7.669c0-14.817-14.93-26.828-33.346-26.828
		s-33.344,12.011-33.344,26.828c0,2.666,0.49,5.239,1.389,7.67c-3.432,4.055-5.406,8.816-5.406,13.908
		c0,14.817,16.727,26.828,37.361,26.828s37.363-12.011,37.363-26.828C347.996,99.741,346.02,94.979,342.588,90.924z"/>
	<path fill="#FFDCAE" d="M336.383,96.856c2.859-3.235,4.645-7.785,4.645-12.828c0-9.819-6.754-17.779-15.086-17.779
		c-7.568,0-13.832,6.567-14.918,15.13c-0.113-0.047-0.229-0.077-0.346-0.083c-1.115-8.521-7.365-15.047-14.91-15.047
		c-8.332,0-15.084,7.96-15.084,17.78c0,5.043,1.783,9.592,4.646,12.827c-4.045,3.419-6.447,7.676-6.447,12.291
		c0,11.274,14.314,20.413,31.973,20.413s31.973-9.139,31.973-20.413C342.828,104.532,340.428,100.275,336.383,96.856z"/>
	<circle fill="#FFFFFF" stroke="#D1D3D4" stroke-miterlimit="10" cx="296.416" cy="85.115" r="12.016"/>
	<circle fill="#FFFFFF" stroke="#D1D3D4" stroke-miterlimit="10" cx="324.852" cy="85.115" r="12.016"/>
	<g>
		<circle fill="#414042" cx="296.375" cy="88.388" r="5.033"/>
		<circle fill="#414042" cx="324.891" cy="88.388" r="5.033"/>
	</g>
	<path fill="#414042" d="M310.633,92.225c0.488,0,2.539,3.965,3.307,3.965s-0.918,2.292-3.307,2.292
		c-2.385,0-4.326-2.322-3.584-2.322C307.787,96.159,310.146,92.225,310.633,92.225z"/>
	<ellipse fill="#414042" cx="310.855" cy="115.777" rx="14.225" ry="0.854"/>
	<g>
		<g>
			<path fill="#FBB040" d="M309.809,114.68c4.121-0.385,8.295-0.755,14.254-2.288c6.564-1.689,9.479-2.827,12.414-4.556
				c0.811-0.479-3.494-4.391-4.268-9.233c-0.703-4.376-0.266-9.313,2.703-10.029c2.971-0.717,2.084,3.77,4.904,7.982
				c1.572,2.348,4.549,4.343,6.309,6.095c1.895,1.888,2.516,3.442,2.516,3.442l20.676,12.078c0,0,1.604,1.435,0.598,5.645
				c-1.008,4.211-3.158,5.659-3.158,5.659l-16.373-1.895c0,0-14.393,3.207-21.426,4.682c-5.58,1.17-11.813,1.725-14.016,1.734
				c-1.914,0.008-3.859-0.788-4.537-2.755c-0.68-1.968,1.527-2.893,1.527-2.893s-4.119,0.023-5.096-2.805
				c-0.748-2.171,2.512-3.625,2.512-3.625s-3.891-0.764-4.162-3.089C304.912,116.506,307.123,114.93,309.809,114.68z"/>
			<path fill="#FFDCAE" d="M310.939,116.074c3.541-0.292,6.834-0.695,11.951-1.631s12.979-4.197,15.768-5.751
				c0.77-0.43-3.145-4.382-4.602-8.604c-1.381-4.007-2.039-6.836,0.111-9.334c1.889-2.192,1.986,3.439,4.676,7.279
				c1.5,2.142,4.336,3.972,6.01,5.571c1.805,1.726,2.398,3.142,2.398,3.142l19.68,11.086c0,0,2.52,1.933,1.564,5.751
				c-0.949,3.82-2.293,4.46-2.293,4.46l-15.473-2.077c0,0-21.201,4.924-23.516,5.364c-5.152,0.979-8.945,1.605-10.924,1.53
				c-2.049-0.08-4.232,0.466-4.574-1.829c-0.432-2.909,9.158-4.058,14.389-4.965c5.23-0.906,12.906-4.291,12.906-4.291
				s-5.867,2.639-12.998,3.865c-8.174,1.407-17.135,2.457-18.016-0.094c-1.465-4.246,8.879-3.308,16.74-5.317
				c6.926-1.771,12.877-3.922,12.875-3.922c0.002,0-5.041,1.73-13.027,3.354c-7.982,1.622-17.551,1.555-17.801-1.032
				C306.582,116.512,308.387,116.287,310.939,116.074z"/>
		</g>
		<path fill="#FBB040" d="M369.9,119.153c1.041,1.172,18.635,7.214,18.635,10.407s-36.174,7.197-36.174,7.197l-4.365-6.938
			l16.691-1.246l4.023-1.539C368.711,127.034,368.861,117.981,369.9,119.153z"/>
	</g>
	<g>
		<g>
			<path fill="#FBB040" d="M314.934,119.29c-0.271,2.325-4.16,3.089-4.16,3.089s3.26,1.454,2.51,3.625
				c-0.975,2.828-5.096,2.805-5.096,2.805s2.207,0.925,1.529,2.893c-0.678,1.967-2.625,2.763-4.537,2.755
				c-2.203-0.01-8.438-0.564-14.016-1.734c-7.033-1.475-21.428-4.682-21.428-4.682l-16.371,1.895c0,0-2.15-1.448-3.158-5.659
				c-1.008-4.21,0.598-5.645,0.598-5.645l20.674-12.078c0,0,0.623-1.555,2.518-3.442c1.758-1.752,4.734-3.747,6.309-6.095
				c2.818-4.213,1.932-8.699,4.904-7.982c2.969,0.717,3.406,5.653,2.703,10.029c-0.775,4.843-5.078,8.755-4.268,9.233
				c2.936,1.729,5.848,2.866,12.414,4.556c5.957,1.533,10.133,1.903,14.254,2.288C312.996,115.39,315.209,116.966,314.934,119.29z"
				/>
			<path fill="#FFDCAE" d="M313.334,119.09c-0.25,2.587-9.816,2.654-17.799,1.032c-7.988-1.623-13.031-3.354-13.029-3.354
				c-0.002,0,5.949,2.151,12.877,3.922c7.859,2.01,18.205,1.071,16.738,5.317c-0.881,2.551-9.84,1.501-18.014,0.094
				c-7.133-1.227-13-3.865-13-3.865s7.678,3.385,12.908,4.291c5.23,0.907,14.818,2.056,14.387,4.965
				c-0.34,2.295-2.523,1.749-4.574,1.829c-1.979,0.075-5.771-0.552-10.922-1.53c-2.316-0.44-23.516-5.364-23.516-5.364
				l-15.475,2.077c0,0-1.344-0.64-2.291-4.46c-0.955-3.818,1.563-5.751,1.563-5.751l19.682-11.086c0,0,0.594-1.416,2.398-3.142
				c1.674-1.6,4.51-3.43,6.008-5.571c2.689-3.84,2.787-9.472,4.678-7.279c2.148,2.498,1.49,5.327,0.109,9.334
				c-1.455,4.222-5.369,8.174-4.6,8.604c2.787,1.554,10.648,4.815,15.768,5.751c5.117,0.936,8.41,1.339,11.949,1.631
				C311.734,116.747,313.539,116.972,313.334,119.09z"/>
		</g>
		<path fill="#FBB040" d="M250.219,119.613c-1.039,1.172-18.635,7.214-18.635,10.407s36.176,7.197,36.176,7.197l4.365-6.938
			l-16.693-1.246l-4.023-1.539C251.408,127.494,251.26,118.441,250.219,119.613z"/>
	</g>
</g>
<g>
	<g>
		<path fill="#FBB040" d="M131.009,156.609c0,23.004-20.93,33.549-46.744,33.549s-46.744-10.545-46.744-33.549
			c0-23.006,20.93-41.658,46.744-41.658S131.009,133.604,131.009,156.609z"/>
		<path fill="#FFDCAE" d="M129.153,155.45c0,20.867-20.098,29.68-44.891,29.68c-24.789,0-44.887-8.813-44.887-29.68
			c0-20.868,20.098-37.787,44.887-37.787C109.056,117.663,129.153,134.582,129.153,155.45z"/>
	</g>
	<path fill="#FFDCAE" d="M122.392,88.729c0-4.705-1.854-8.521-6.801-8.521s-8.957,8.521-8.957,8.521s4.01,8.523,8.957,8.523
		C120.536,97.253,122.392,93.437,122.392,88.729z"/>
	<g>
		<g>
			<path fill="#FBB040" d="M44.581,88.7c0-5.614,2.209-10.165,8.109-10.165c5.902,0,10.686,10.165,10.686,10.165
				S58.593,98.862,52.69,98.862C46.79,98.862,44.581,94.313,44.581,88.7z"/>
			<path fill="#FFDCAE" d="M46.265,88.188c0-4.705,1.855-8.521,6.803-8.521c4.945,0,8.955,8.521,8.955,8.521
				s-4.01,8.521-8.955,8.521C48.118,96.709,46.265,92.896,46.265,88.188z"/>
			<path fill="#FBB040" d="M63.374,88.7c0,0-2.189-2.076-1.676-1.149c0.453,0.814-8.119-3.094-8.119-3.094l1.055,2.229l-3.652,1.503
				l3.729,1.465l-1.301,2.294c0,0,8.324-3.137,7.955-2.507C60.866,90.288,63.374,88.7,63.374,88.7z"/>
		</g>
		<g>
			<path fill="#FBB040" d="M124.173,88.7c0-5.614-2.209-10.165-8.111-10.165S105.378,88.7,105.378,88.7s4.781,10.162,10.684,10.162
				S124.173,94.313,124.173,88.7z"/>
			<path fill="#FFDCAE" d="M122.485,88.188c0-4.705-1.852-8.521-6.799-8.521c-4.949,0-8.957,8.521-8.957,8.521
				s4.008,8.521,8.957,8.521C120.634,96.709,122.485,92.896,122.485,88.188z"/>
			<path fill="#FBB040" d="M105.378,88.7c0,0,2.188-2.076,1.674-1.149c-0.453,0.814,8.121-3.094,8.121-3.094l-1.055,2.229
				l3.65,1.503l-3.727,1.465l1.301,2.295c0,0-8.326-3.138-7.955-2.506C107.886,90.288,105.378,88.7,105.378,88.7z"/>
		</g>
	</g>
	<path fill="#FBB040" d="M112.386,97.083c0.789-2.131,1.219-4.387,1.219-6.723c0-12.988-13.086-23.517-29.229-23.517
		c-16.145,0-29.23,10.528-29.23,23.517c0,2.337,0.43,4.592,1.219,6.723c-3.008,3.555-4.74,7.728-4.74,12.192
		c0,12.987,14.664,23.517,32.752,23.517c18.086,0,32.75-10.529,32.75-23.517C117.126,104.811,115.394,100.638,112.386,97.083z"/>
	<path fill="#FFDCAE" d="M106.946,102.282c2.508-2.835,4.072-6.823,4.072-11.244c0-8.607-5.922-15.585-13.225-15.585
		c-6.635,0-12.125,5.757-13.076,13.263c-0.1-0.041-0.199-0.068-0.303-0.073c-0.979-7.469-6.457-13.189-13.07-13.189
		c-7.303,0-13.223,6.978-13.223,15.585c0,4.422,1.564,8.409,4.072,11.244c-3.545,2.997-5.65,6.729-5.65,10.774
		c0,9.883,12.547,17.894,28.025,17.894c15.48,0,28.027-8.011,28.027-17.894C112.597,109.012,110.493,105.279,106.946,102.282z"/>
	<circle fill="#FFFFFF" stroke="#D1D3D4" stroke-miterlimit="10" cx="71.913" cy="91.991" r="10.533"/>
	<circle fill="#FFFFFF" stroke="#D1D3D4" stroke-miterlimit="10" cx="96.839" cy="91.991" r="10.533"/>
	<g>
		<circle fill="#414042" cx="71.878" cy="95.481" r="4.412"/>
		<circle fill="#414042" cx="96.874" cy="95.481" r="4.412"/>
	</g>
	<path fill="#414042" d="M84.376,98.223c0.426,0,2.225,3.476,2.898,3.476c0.672,0-0.807,2.009-2.898,2.009s-3.793-2.036-3.143-2.036
		C81.88,101.671,83.948,98.223,84.376,98.223z"/>
	<path fill="#414042" d="M98.831,120.959c0.135,1.245-5.598,1.142-12.445,1.879c-6.848,0.738-12.215,2.037-12.35,0.792
		c-0.135-1.243,5.016-2.563,11.863-3.3C92.747,119.592,98.698,119.715,98.831,120.959z"/>
	<g>
		<g>
			<path fill="#FBB040" d="M61.575,71.939c-0.896,1.766-5.66,11.682-6.047,14.544c-0.387,2.86,0.76,7.819,1.027,10.783
				c0.27,2.964-2.67,5.342-2.67,5.342l-14.17,11.02c0,0-1.445,0.719-4.096-1.155c-2.648-1.875-3.02-2.397-3.057-3.776
				c-0.037-1.381,9.928-11.593,10.789-16.935c0.859-5.342,1.789-8.551,3.418-12.637c1.631-4.087,4.744-9.052,6.986-8.944
				c1.719,0.085,1.676,0.865,1.676,0.865s0.576-1.209,2.209-2.524c1.119-0.904,2.834-0.996,3.686-0.196
				C62.179,69.126,62.354,70.403,61.575,71.939z"/>
			<path fill="#FFDCAE" d="M58.829,74.028c-0.734,1.59-4.654,10.501-5.004,12.999c-0.348,2.5,1.176,6.729,1.344,9.266
				c0.166,2.538-2.193,4.81-2.193,4.81l-13.486,11.152c0,0-1.154,0.729-3.223-0.691c-2.066-1.423-2.354-1.846-2.361-3.033
				c-0.008-1.19,9.447-11.368,10.207-16.042c0.762-4.674,4.6-8.549,4.6-8.549s3.143-5.654,7.547-12.188
				c0.695-1.031,2.389-3.046,3.148-2.543C61.103,70.328,59.468,72.645,58.829,74.028z"/>
			<path fill="#FFDCAE" d="M52.052,76.083c-2.641,3.987-4.451,8.228-5.535,9.102c-1.084,0.873-0.037-3.357,1.014-5.858
				c1.051-2.503,2.895-5.588,3.637-6.467c0.74-0.88,1.854-2.233,2.875-1.904C55.062,71.284,54.69,72.099,52.052,76.083z"/>
		</g>
		<g>
			<path fill="#FBB040" d="M107.177,71.939c0.895,1.766,5.66,11.682,6.047,14.544c0.387,2.86-0.76,7.821-1.029,10.783
				c-0.268,2.964,2.672,5.342,2.672,5.342l14.17,11.02c0,0,1.443,0.719,4.094-1.155c2.648-1.875,3.021-2.397,3.057-3.776
				c0.037-1.381-9.926-11.593-10.787-16.935c-0.859-5.342-1.789-8.551-3.418-12.637c-1.629-4.087-4.746-9.052-6.986-8.944
				c-1.717,0.085-1.676,0.865-1.676,0.865s-0.576-1.209-2.209-2.524c-1.117-0.904-2.834-0.996-3.686-0.196
				C106.573,69.126,106.397,70.403,107.177,71.939z"/>
			<path fill="#FFDCAE" d="M109.923,74.028c0.734,1.59,4.656,10.501,5.002,12.999c0.352,2.5-1.176,6.729-1.34,9.266
				c-0.168,2.538,2.193,4.81,2.193,4.81l13.484,11.152c0,0,1.154,0.729,3.223-0.691c2.066-1.423,2.354-1.846,2.361-3.033
				c0.008-1.19-9.447-11.368-10.209-16.042c-0.76-4.674-4.6-8.549-4.6-8.549s-3.141-5.654-7.545-12.188
				c-0.695-1.031-2.387-3.046-3.148-2.543C107.649,70.328,109.282,72.645,109.923,74.028z"/>
			<path fill="#FFDCAE" d="M116.7,76.083c2.641,3.987,4.451,8.228,5.535,9.102c1.084,0.873,0.037-3.357-1.014-5.858
				c-1.051-2.503-2.895-5.588-3.639-6.467c-0.738-0.88-1.854-2.233-2.873-1.904S114.062,72.099,116.7,76.083z"/>
		</g>
	</g>
	<path fill="#FBB040" d="M44.581,135.048l-5.809,11.956c0,0-20.504-16.054-20.479-19.313c0.016-2.215,13.953-18.163,14.27-18.994
		s7.209,5.694,6.469,5.338s-13.021,11.952-11.055,13.775C30.214,129.88,44.581,135.048,44.581,135.048z"/>
	<ellipse fill="#FBB040" cx="85.547" cy="177.446" rx="2.409" ry="1.461"/>
	<path fill="#FBB040" d="M124.173,135.048l5.807,11.956c0,0,20.504-16.054,20.479-19.313c-0.016-2.215-13.953-18.163-14.27-18.994
		s-7.209,5.694-6.469,5.338s13.021,11.952,11.055,13.775C138.54,129.88,124.173,135.048,124.173,135.048z"/>
	<g>
		<g>
			<path fill="#FAAF40" d="M120.245,203.074c1.672,0.473,3.053,0.968,4.203,1.484c0.02,0.009,0.037,0.016,0.059,0.024
				c5.602,2.388,11.865,7.163,10.859,9.522c-0.473,1.106-1.91,1.681-3.873,1.741c2.115,1.822,3.18,3.733,2.586,5.125
				c-0.539,1.265-2.34,1.839-4.75,1.734c0.943,1.24,1.318,2.434,0.912,3.385c-1.006,2.359-6.363,2.334-11.965-0.055
				c-1.346-0.572-2.58-1.232-3.668-1.934c-0.092-0.05-0.186-0.082-0.275-0.136c-5.258-3.104-31.557-13.328-29.861-19.313
				C86.165,198.67,108.212,199.668,120.245,203.074z"/>
			<path fill="#FFDCAE" d="M108.272,201.817c6.895,0.691,11.428,1.993,15.723,3.83c4.295,1.839,10.605,6.161,9.916,7.576
				c-0.693,1.414-2.402,1.668-4.125,1.637c1.93,1.451,3.41,4.405,2.691,5.536c-0.719,1.13-2.75,1.602-4.873,1.428
				c0.877,0.969,2.268,1.907,1.4,3.485c-0.867,1.579-7.896,1.859-13.184-5.51s-32.361-12.963-28.549-16.112
				S101.378,201.127,108.272,201.817z"/>
		</g>
		<path fill="#FBB040" d="M99.96,188.29l-8.748,15.442c0,0-1.938,1.554-4.6,0.64c-2.662-0.913,0.506-2.781,0.506-2.781l2.332-12.759
			L99.96,188.29z"/>
	</g>
	<g>
		<g>
			<path fill="#FAAF40" d="M44.647,202.52c-1.672,0.473-3.053,0.969-4.205,1.485c-0.018,0.009-0.037,0.015-0.057,0.023
				c-5.602,2.389-11.865,7.164-10.859,9.522c0.471,1.107,1.908,1.682,3.873,1.742c-2.115,1.822-3.18,3.733-2.588,5.125
				c0.541,1.265,2.34,1.839,4.752,1.734c-0.943,1.24-1.318,2.434-0.912,3.384c1.004,2.36,6.363,2.335,11.965-0.055
				c1.346-0.572,2.58-1.231,3.668-1.933c0.092-0.05,0.186-0.083,0.273-0.137c5.26-3.103,31.557-13.327,29.863-19.313
				C78.728,198.116,56.681,199.114,44.647,202.52z"/>
			<path fill="#FFDCAE" d="M56.62,201.264c-6.895,0.69-11.428,1.992-15.723,3.83c-4.297,1.839-10.605,6.161-9.916,7.575
				c0.693,1.415,2.402,1.669,4.125,1.638c-1.93,1.45-3.41,4.405-2.691,5.535c0.717,1.131,2.75,1.602,4.873,1.429
				c-0.879,0.968-2.268,1.906-1.4,3.485c0.867,1.578,7.896,1.859,13.184-5.511c5.287-7.368,32.361-12.962,28.549-16.112
				C73.808,199.984,63.513,200.572,56.62,201.264z"/>
		</g>
		<path fill="#FBB040" d="M64.931,187.736l8.748,15.442c0,0,1.939,1.553,4.602,0.64s-0.506-2.782-0.506-2.782l-2.332-12.759
			L64.931,187.736z"/>
	</g>
</g>
<g>
	<path fill="#FBB040" d="M0.848,148.323l-9.869-34.636c0,0,26.644,35.109,27.33,38.181c0.684,3.071-4.573,34.982-4.26,36.206
		c0.31,1.224-9.822-3.195-8.671-3.387c1.151-0.19,1.439-24.278,1.728-28.597S0.848,148.323,0.848,148.323z"/>
	<g>
		<path fill="#FBB040" d="M0.961,144.898c0,32.68-29.731,47.66-66.405,47.66c-36.672,0-66.402-14.98-66.402-47.66
			c0-32.683,29.73-59.179,66.402-59.179C-28.77,85.72,0.961,112.216,0.961,144.898z"/>
		<path fill="#FFDCAE" d="M-1.674,143.253c0,29.644-28.552,42.162-63.77,42.162c-35.217,0-63.768-12.519-63.768-42.162
			c0-29.646,28.551-53.682,63.768-53.682C-30.226,89.571-1.674,113.607-1.674,143.253z"/>
	</g>
	<path fill="#FFDCAE" d="M-11.438,51.094c0-6.688-2.632-12.105-9.661-12.105c-7.027,0-12.725,12.105-12.725,12.105
		s5.697,12.105,12.725,12.105S-11.438,57.779-11.438,51.094z"/>
	<g>
		<g>
			<path fill="#FBB040" d="M-121.977,51.049c0-7.976,3.14-14.44,11.523-14.44c8.382,0,15.179,14.44,15.179,14.44
				s-6.795,14.439-15.179,14.439C-118.837,65.486-121.977,59.023-121.977,51.049z"/>
			<path fill="#FFDCAE" d="M-119.582,50.322c0-6.685,2.634-12.105,9.661-12.105s12.724,12.105,12.724,12.105
				s-5.696,12.106-12.724,12.106C-116.95,62.429-119.582,57.01-119.582,50.322z"/>
			<path fill="#FBB040" d="M-95.277,51.049c0,0-3.11-2.949-2.382-1.633c0.645,1.159-11.534-4.395-11.534-4.395l1.498,3.168
				l-5.187,2.135l5.294,2.08l-1.847,3.259c0,0,11.826-4.457,11.3-3.561C-98.839,53.306-95.277,51.049-95.277,51.049z"/>
		</g>
		<g>
			<path fill="#FBB040" d="M-8.908,51.049c0-7.976-3.139-14.44-11.523-14.44c-8.382,0-15.178,14.44-15.178,14.44
				s6.796,14.439,15.178,14.439C-12.046,65.486-8.908,59.023-8.908,51.049z"/>
			<path fill="#FFDCAE" d="M-11.303,50.322c0-6.685-2.632-12.105-9.661-12.105c-7.027,0-12.723,12.105-12.723,12.105
				s5.695,12.106,12.723,12.106C-13.935,62.429-11.303,57.01-11.303,50.322z"/>
			<path fill="#FBB040" d="M-35.609,51.049c0,0,3.109-2.949,2.381-1.633c-0.645,1.159,11.535-4.395,11.535-4.395l-1.497,3.168
				l5.187,2.135l-5.295,2.08l1.847,3.26c0,0-11.826-4.457-11.3-3.561C-32.044,53.306-35.609,51.049-35.609,51.049z"/>
		</g>
	</g>
	<path fill="#FBB040" d="M-25.651,62.958c1.12-3.026,1.731-6.231,1.731-9.55C-23.919,34.958-42.51,20-65.443,20
		s-41.523,14.958-41.523,33.408c0,3.32,0.61,6.523,1.73,9.551c-4.273,5.05-6.732,10.979-6.732,17.32
		c0,18.451,20.83,33.408,46.525,33.408c25.694,0,46.526-14.957,46.526-33.408C-18.917,73.938-21.377,68.009-25.651,62.958z"/>
	<path fill="#FFDCAE" d="M-33.378,70.346c3.563-4.029,5.785-9.694,5.785-15.975c0-12.228-8.412-22.141-18.785-22.141
		c-9.427,0-17.228,8.179-18.579,18.844c-0.142-0.061-0.284-0.098-0.43-0.105c-1.39-10.611-9.173-18.736-18.566-18.736
		c-10.375,0-18.786,9.911-18.786,22.14c0,6.28,2.223,11.945,5.787,15.974c-5.038,4.258-8.028,9.558-8.028,15.306
		c0,14.039,17.826,25.42,39.814,25.42c21.989,0,39.815-11.381,39.815-25.42C-25.351,79.903-28.341,74.604-33.378,70.346z"/>
	<circle fill="#FFFFFF" stroke="#D1D3D4" stroke-miterlimit="10" cx="-83.146" cy="55.725" r="14.962"/>
	<circle fill="#FFFFFF" stroke="#D1D3D4" stroke-miterlimit="10" cx="-47.739" cy="55.725" r="14.962"/>
	<g>
		<circle fill="#414042" cx="-83.198" cy="56.347" r="6.267"/>
		<circle fill="#414042" cx="-47.688" cy="56.347" r="6.267"/>
	</g>
	<path fill="#414042" d="M-65.443,64.577c0.606,0,3.161,4.938,4.117,4.938c0.957,0-1.146,2.854-4.117,2.854
		c-2.971,0-5.388-2.892-4.466-2.892C-68.988,69.478-66.049,64.577-65.443,64.577z"/>
	<path fill="#414042" d="M-80.365,94.339c-0.225-1.765,8.403,3.815,18.109,2.571c9.703-1.241,16.809-8.837,17.033-7.074
		c0.226,1.762-6.963,8.045-16.668,9.288C-71.598,100.367-80.14,96.101-80.365,94.339z"/>
	<g>
		<g>
			<path opacity="0.8" fill="#414042" enable-background="new    " d="M-87.349,40.651c-10.654-1.111-17.006,4.955-17.863,13.167
				c-0.857,8.214,4.105,15.462,14.757,16.573c10.654,1.111,20.319-7.833,21.177-16.047C-68.42,46.132-76.694,41.764-87.349,40.651z"
				/>
			<path fill="#414042" d="M-87.422,38.608c-12.12-1.266-19.344,5.634-20.32,14.978c-0.975,9.341,4.669,17.585,16.788,18.852
				c12.118,1.265,23.112-8.912,24.088-18.254C-65.891,44.841-75.302,39.874-87.422,38.608z M-69.634,54.271
				c-0.847,8.115-10.398,16.957-20.924,15.856c-10.528-1.098-15.43-8.26-14.583-16.377c0.846-8.115,7.123-14.109,17.651-13.009
				C-76.963,41.839-68.787,46.154-69.634,54.271z"/>
			<path opacity="0.7" fill="#FFFFFF" enable-background="new    " d="M-97.601,57.178l-1.717,0.231c0,0-0.442-1.455-0.423-6.468
				c0.017-4.033,0.125-5.662,0.125-5.662s0.515-0.632,1.065-0.922s1.458-0.566,1.458-0.566s-0.42,2.209-0.603,7.15
				C-97.879,55.883-97.601,57.178-97.601,57.178z"/>
			<path opacity="0.7" fill="#FFFFFF" enable-background="new    " d="M-94.653,51.006l-1.722-0.033c0,0-0.351-0.928-0.021-3.973
				c0.264-2.447,0.473-3.428,0.473-3.428s0.554-0.331,1.117-0.452c0.565-0.121,1.487-0.196,1.487-0.196s-0.557,1.298-1.042,4.282
				C-94.85,50.191-94.653,51.006-94.653,51.006z"/>
			<path opacity="0.8" fill="#414042" enable-background="new    " d="M-61.61,54.344c0.858,8.214,10.523,17.157,21.177,16.047
				c10.652-1.11,15.615-8.359,14.758-16.573c-0.857-8.212-7.209-14.276-17.863-13.167C-54.19,41.764-62.466,46.132-61.61,54.344z"/>
			<path fill="#414042" d="M-64.022,54.184c0.977,9.343,11.971,19.519,24.089,18.254c12.117-1.265,17.764-9.509,16.788-18.852
				c-0.976-9.342-8.2-16.241-20.32-14.978C-55.583,39.874-64.995,44.841-64.022,54.184z M-43.396,40.741
				c10.529-1.1,16.805,4.894,17.65,13.009c0.849,8.117-4.054,15.279-14.581,16.377c-10.528,1.101-20.079-7.741-20.924-15.856
				C-62.1,46.154-53.924,41.839-43.396,40.741z"/>
			<path opacity="0.7" fill="#FFFFFF" enable-background="new    " d="M-50.075,51.982l-1.723-0.034c0,0-0.351-0.929-0.022-3.972
				c0.266-2.449,0.474-3.428,0.474-3.428s0.553-0.33,1.117-0.452s1.485-0.196,1.485-0.196s-0.555,1.299-1.04,4.281
				C-50.272,51.166-50.075,51.982-50.075,51.982z"/>
		</g>
		<rect x="-68.185" y="47.785" fill="#414042" width="5.483" height="2.82"/>
		<rect x="-68.185" y="54.611" fill="#414042" width="5.483" height="1.781"/>
	</g>
	<g>
		<g>
			<path fill="#FAAF40" d="M-174.457,99.9c0,0,11.531-7.654,16.938-12.594c1.497-1.363-6.3-18.562-9.574-27.479
				c-3.271-8.916-2.448-27.703,7.685-26.497c10.131,1.204,13.75,9.048,17.414,21.069c2.044,6.699-0.381,13.093,2.129,18.092
				c2.71,5.382,3.355,9.818,3.355,9.818l20.656,20.592c0,0,4.229,14.519,1.429,26.542c-2.8,12.015-6.917,23.253-8.891,23.673
				s-11.22,0.688-11.22,0.688s-16.701,8.345-23.296,7.388c-6.595-0.96-8.798-3.27-10.356-4.535c-1.559-1.27-8.95-3.881-9.583-9.492
				c-0.633-5.614,3.338-8.252,3.338-8.252s-6.968,0.071-7.878-8.002c-0.702-6.196,5.188-10.352,5.188-10.352
				s-6.372-2.171-6.229-8.807C-183.205,105.117-174.457,99.9-174.457,99.9z"/>
		</g>
		<g>
			<path fill="#FFDCAD" d="M-157.957,159.19c-7.011-1.437-8.729-3.478-9.434-4.4c-3.76-4.928-3.931-19.635-5.257-31.671
				c-1.133-10.28-3.688-18.483-3.688-18.483s20.647-15.31,21.592-17.247c0.945-1.934-1.965-10.866-6.5-19.782
				c-6.34-12.472-4.972-28.991,0.492-30.435c8.008-2.118,12.073,8.396,15.736,20.417c2.043,6.697,1.251,15.926,3.76,20.925
				c2.71,5.387,1.661,8.245,1.661,8.245l21.225,20.334c0,0,2.513,11.807,0.703,19.363c-2.876,11.999-6.908,23.139-6.908,23.139
				l-11.036,2.029C-135.611,151.624-150.944,160.628-157.957,159.19z"/>
		</g>
		<path fill="#FAAF40" d="M-172.253,124.197c0,0,16.363,4.326,28.628,3.607c12.261-0.719,13.605,4.776,13.299,8.816
			c-0.297,4.04-4.035,8.736-15.458,8.188c-11.419-0.551-24.654-3.585-24.654-3.585s-3.446-0.438-7.925-3.903
			c-3.074-2.375-4.546-7.38-3.155-10.75C-180.131,123.197-172.253,124.197-172.253,124.197z"/>
		<path fill="#FAAF40" d="M-170.05,140.012c4.022,0.759,12.388,4.971,22.961,5.268c10.444,0.295,10.718,4.118,10.382,7.326
			c-0.332,3.211-3.417,6.863-12.496,6.157c-9.077-0.701-19.542-3.43-19.542-3.43s-2.73-0.426-6.217-3.287
			c-2.391-1.964-3.445-5.98-2.264-8.633C-176.04,140.764-173.547,139.35-170.05,140.012z"/>
		<path fill="#FFDCAD" d="M-171.278,125.616c0,0,15.039,4.173,26.323,4.14c11.273-0.031,12.499,4.404,12.206,7.614
			c-0.284,3.209-3.731,6.789-14.239,5.85c-10.497-0.94-22.663-3.941-22.663-3.941s-3.167-0.502-7.277-3.463
			c-2.822-2.031-4.163-6.086-2.877-8.714C-178.519,124.476-171.278,125.616-171.278,125.616z"/>
		<path fill="#FFDCAD" d="M-169.542,141.525c3.624,0.681,11.191,4.299,20.693,4.673c9.393,0.372,9.682,3.567,9.417,6.244
			c-0.262,2.673-2.989,5.686-11.152,4.987c-8.167-0.689-17.603-3.095-17.603-3.095s-2.46-0.389-5.625-2.822
			c-2.172-1.666-3.167-5.034-2.137-7.232C-174.915,142.082-172.692,140.931-169.542,141.525z"/>
		<path fill="#FAAF40" d="M-173.604,106.229c0,0,18.491,2.413,31.678-0.254c13.182-2.659,15.571,3.339,15.927,7.945
			c0.36,4.606-2.898,10.479-15.387,11.583c-12.484,1.106-27.359-0.322-27.359-0.322s-3.814,0.023-9.264-3.213
			c-3.736-2.213-6.183-7.643-5.248-11.662C-182.321,106.292-173.604,106.229-173.604,106.229z"/>
		<path fill="#FFDCAD" d="M-172.305,107.681c0,0,17.026,2.438,29.266,0.697c12.226-1.739,14.31,3.092,14.54,6.757
			c0.234,3.663-2.9,8.233-14.46,8.757c-11.55,0.525-25.26-1.026-25.26-1.026s-3.524-0.092-8.486-2.811
			c-3.408-1.864-5.235-5.25-4.283-8.416C-180.039,108.479-172.305,107.681-172.305,107.681z"/>
		<path fill="#FFDCAD" d="M-176.336,104.636c-2.034,1.593-3.373,4.265-4.391,6.429c-1.017,2.159,7.305-1.941,10.508-3.117
			c3.205-1.174,9.214-0.782,9.214-0.782S-173.507,102.43-176.336,104.636z"/>
	</g>
	<ellipse fill="#FBB040" cx="-65.443" cy="177.711" rx="3.422" ry="2.076"/>
	<g>
		<g>
			<path fill="#FAAF40" d="M-11.333,210.076c2.375,0.672,4.336,1.376,5.972,2.11c0.026,0.012,0.053,0.021,0.081,0.033
				c7.959,3.394,16.855,10.177,15.428,13.528c-0.671,1.571-2.713,2.388-5.502,2.474c3.005,2.589,4.517,5.304,3.675,7.28
				c-0.767,1.798-3.324,2.612-6.75,2.464c1.342,1.763,1.872,3.457,1.297,4.808c-1.429,3.353-9.04,3.316-16.998-0.077
				c-1.912-0.813-3.664-1.75-5.212-2.746c-0.129-0.071-0.262-0.117-0.389-0.193c-7.47-4.408-44.829-18.934-42.423-27.436
				C-59.749,203.82-28.429,205.238-11.333,210.076z"/>
			<path fill="#FFDCAE" d="M-28.341,208.292c9.793,0.981,16.232,2.83,22.335,5.44c6.103,2.612,15.066,8.753,14.086,10.763
				c-0.985,2.01-3.413,2.37-5.86,2.325c2.741,2.062,4.846,6.259,3.824,7.864c-1.02,1.606-3.908,2.275-6.923,2.029
				c1.247,1.375,3.222,2.709,1.988,4.951c-1.231,2.242-11.218,2.642-18.728-7.828c-7.512-10.468-45.974-18.414-40.558-22.889
				C-52.76,206.475-38.136,207.31-28.341,208.292z"/>
		</g>
		<path fill="#FBB040" d="M-40.15,189.075l-12.428,21.937c0,0-2.753,2.207-6.536,0.909c-3.782-1.297,0.72-3.952,0.72-3.952
			l3.312-18.125L-40.15,189.075z"/>
	</g>
	<g>
		<path fill="#FAAF40" d="M3.943,250.214c-0.074-2.685-0.806-17.576-2.197-21.238c-1.39-3.657-5.962-8.824-8.195-12.183
			c-2.235-3.355-0.272-8.09-0.272-8.09l9.76-22.29c0,0,1.258-1.786,5.622-1.27c4.37,0.522,5.148,0.902,6.084,2.524
			c0.94,1.622-4.334,20.23-1.904,27.149c2.431,6.917,3.398,11.342,4.098,17.264c0.699,5.924,0.198,13.853-2.542,15.17
			c-2.103,1.013-2.557,0.056-2.557,0.056s0.094,1.811-0.997,4.434c-0.746,1.799-2.734,3.02-4.267,2.617
			C5.045,253.953,4.008,252.545,3.943,250.214z"/>
		<path fill="#FFDCAD" d="M5.864,245.949c-0.15-2.369-1.24-15.521-2.441-18.723s-5.752-7.258-7.59-10.171
			c-1.836-2.917-0.494-7.146-0.494-7.146l8.856-22.005c0,0,0.906-1.612,4.285-1.257c3.383,0.357,3.997,0.677,4.772,2.087
			c0.78,1.411-3.906,19.649-1.79,25.71c2.114,6.058,0.047,13.158,0.047,13.158s-0.087,8.764-1.113,19.396
			c-0.159,1.682-0.872,5.176-2.103,5.065C5.549,251.827,5.999,248.011,5.864,245.949z"/>
		<path fill="#FFDCAD" d="M12.612,239.116c0.569-6.455-0.016-12.677,0.711-14.419c0.729-1.74,2.213,3.978,2.577,7.635
			c0.367,3.664,0.164,8.527-0.15,10.056c-0.315,1.528-0.768,3.858-2.195,4.125C12.128,246.782,12.042,245.573,12.612,239.116z"/>
	</g>
	<g>
		<g>
			<path fill="#FAAF40" d="M-118.729,209.289c-2.375,0.672-4.336,1.376-5.971,2.11c-0.026,0.012-0.053,0.021-0.081,0.033
				c-7.959,3.393-16.856,10.177-15.428,13.527c0.67,1.572,2.712,2.389,5.502,2.475c-3.006,2.589-4.517,5.304-3.675,7.28
				c0.767,1.797,3.324,2.612,6.75,2.464c-1.342,1.763-1.873,3.457-1.296,4.808c1.428,3.353,9.039,3.316,16.998-0.077
				c1.912-0.813,3.664-1.75,5.211-2.746c0.129-0.071,0.262-0.117,0.389-0.193c7.47-4.409,44.83-18.934,42.423-27.436
				C-70.313,203.033-101.633,204.451-118.729,209.289z"/>
			<path fill="#FFDCAE" d="M-101.721,207.505c-9.794,0.981-16.233,2.83-22.335,5.44c-6.102,2.612-15.066,8.753-14.085,10.763
				c0.984,2.009,3.412,2.37,5.86,2.325c-2.742,2.062-4.846,6.259-3.825,7.864c1.02,1.605,3.908,2.275,6.923,2.028
				c-1.247,1.376-3.222,2.71-1.988,4.952c1.231,2.242,11.218,2.642,18.728-7.828c7.511-10.468,45.973-18.414,40.557-22.889
				C-77.303,205.688-91.927,206.522-101.721,207.505z"/>
		</g>
		<path fill="#FBB040" d="M-89.913,188.288l12.428,21.937c0,0,2.753,2.207,6.536,0.909c3.783-1.297-0.72-3.952-0.72-3.952
			l-3.312-18.125L-89.913,188.288z"/>
	</g>
</g>
</svg>
